# xmcd
#
# Track frame offsets: 
#        150
#        19172
#        46553
#        63585
#        71525
#        86061
#
# Disc length: 2402 seconds
#
# Revision: 0
# Processed by: cddbd v1.5PL3 Copyright (c) Steve Scherf et al.
# Submitted via: ExactAudioCopy v0.95a4
#
DISCID=47096006
DTITLE=Memphis - Mulberry Creek
DYEAR=1998
DGENRE=Blues
TTITLE0=Radio Stealing
TTITLE1=Living off Motown
TTITLE2=Shaven Eyes
TTITLE3=Interlude
TTITLE4=Wreaking Ball
TTITLE5=Living off Motown (Live)
EXTD=
EXTT0=
EXTT1=
EXTT2=
EXTT3=
EXTT4=
EXTT5=
PLAYORDER=
